<mxfile host="Electron" agent="Mozilla/5.0 (Windows NT 10.0; Win64; x64) AppleWebKit/537.36 (KHTML, like Gecko) draw.io/25.0.1 Chrome/128.0.6613.186 Electron/32.2.6 Safari/537.36" version="25.0.1">
  <diagram name="Page-1" id="-H_mtQnk-PTXWXPvYvuk">
    <mxGraphModel dx="1562" dy="909" grid="1" gridSize="10" guides="1" tooltips="1" connect="1" arrows="1" fold="1" page="1" pageScale="1" pageWidth="1169" pageHeight="827" math="0" shadow="0">
      <root>
        <mxCell id="0" />
        <mxCell id="1" parent="0" />
        <mxCell id="zA23MoTUsTF4_91t8viU-3" value="&lt;b&gt;&lt;font color=&quot;#333333&quot;&gt;pymongo-api&lt;/font&gt;&lt;/b&gt;" style="rounded=1;whiteSpace=wrap;html=1;strokeWidth=2;strokeColor=#333333;" parent="1" vertex="1">
          <mxGeometry x="475" y="170" width="120" height="60" as="geometry" />
        </mxCell>
        <mxCell id="sGdueFbf5gFJr58cs0Tm-1" value="&lt;b&gt;configSrv&lt;/b&gt;" style="rounded=1;whiteSpace=wrap;html=1;strokeWidth=2;" parent="1" vertex="1">
          <mxGeometry x="704" y="241" width="120" height="60" as="geometry" />
        </mxCell>
        <mxCell id="sGdueFbf5gFJr58cs0Tm-15" style="edgeStyle=orthogonalEdgeStyle;rounded=1;orthogonalLoop=1;jettySize=auto;html=1;exitX=1;exitY=0.5;exitDx=0;exitDy=0;entryX=0;entryY=0.5;entryDx=0;entryDy=0;strokeWidth=2;curved=0;" parent="1" source="sGdueFbf5gFJr58cs0Tm-3" target="sGdueFbf5gFJr58cs0Tm-1" edge="1">
          <mxGeometry relative="1" as="geometry" />
        </mxCell>
        <mxCell id="sGdueFbf5gFJr58cs0Tm-21" style="edgeStyle=orthogonalEdgeStyle;rounded=1;orthogonalLoop=1;jettySize=auto;html=1;curved=0;strokeWidth=2;startArrow=none;startFill=0;entryX=0.5;entryY=0;entryDx=0;entryDy=0;" parent="1" target="0muuILdMk2ypR8TaKjU4-2" edge="1">
          <mxGeometry relative="1" as="geometry">
            <mxPoint x="550" y="401" as="sourcePoint" />
            <mxPoint x="417" y="417" as="targetPoint" />
            <Array as="points">
              <mxPoint x="540" y="401" />
              <mxPoint x="315" y="401" />
            </Array>
          </mxGeometry>
        </mxCell>
        <mxCell id="sGdueFbf5gFJr58cs0Tm-3" value="&lt;b&gt;router&lt;/b&gt;" style="rounded=1;whiteSpace=wrap;html=1;strokeWidth=2;" parent="1" vertex="1">
          <mxGeometry x="474" y="310" width="120" height="60" as="geometry" />
        </mxCell>
        <mxCell id="sGdueFbf5gFJr58cs0Tm-5" style="edgeStyle=orthogonalEdgeStyle;rounded=1;orthogonalLoop=1;jettySize=auto;html=1;entryX=0.427;entryY=0.007;entryDx=0;entryDy=0;entryPerimeter=0;strokeWidth=2;curved=0;" parent="1" edge="1">
          <mxGeometry relative="1" as="geometry">
            <mxPoint x="533.73" y="230.58" as="sourcePoint" />
            <mxPoint x="533.97" y="310.00000000000006" as="targetPoint" />
          </mxGeometry>
        </mxCell>
        <mxCell id="sGdueFbf5gFJr58cs0Tm-22" style="edgeStyle=orthogonalEdgeStyle;rounded=1;orthogonalLoop=1;jettySize=auto;html=1;entryX=0.5;entryY=0;entryDx=0;entryDy=0;curved=0;strokeWidth=2;startArrow=none;startFill=0;" parent="1" target="0muuILdMk2ypR8TaKjU4-6" edge="1">
          <mxGeometry relative="1" as="geometry">
            <mxPoint x="540" y="401" as="sourcePoint" />
            <mxPoint x="640" y="417" as="targetPoint" />
            <Array as="points">
              <mxPoint x="540" y="401" />
              <mxPoint x="765" y="401" />
            </Array>
          </mxGeometry>
        </mxCell>
        <mxCell id="sGdueFbf5gFJr58cs0Tm-23" value="" style="endArrow=none;dashed=1;html=1;rounded=0;entryX=-0.005;entryY=0.449;entryDx=0;entryDy=0;entryPerimeter=0;" parent="1" target="0muuILdMk2ypR8TaKjU4-6" edge="1">
          <mxGeometry width="50" height="50" relative="1" as="geometry">
            <mxPoint x="440" y="516" as="sourcePoint" />
            <mxPoint x="601.56" y="516.76" as="targetPoint" />
          </mxGeometry>
        </mxCell>
        <mxCell id="0muuILdMk2ypR8TaKjU4-2" value="" style="rounded=1;whiteSpace=wrap;html=1;fillColor=#dae8fc;strokeColor=#6c8ebf;" parent="1" vertex="1">
          <mxGeometry x="190" y="436" width="250" height="180" as="geometry" />
        </mxCell>
        <mxCell id="0muuILdMk2ypR8TaKjU4-3" value="&lt;b&gt;shard1&lt;/b&gt;&lt;div&gt;&lt;b&gt;(primary)&lt;/b&gt;&lt;/div&gt;" style="shape=cylinder3;whiteSpace=wrap;html=1;boundedLbl=1;backgroundOutline=1;size=15;strokeWidth=2;" parent="1" vertex="1">
          <mxGeometry x="285" y="446" width="60" height="80" as="geometry" />
        </mxCell>
        <mxCell id="0muuILdMk2ypR8TaKjU4-4" value="&lt;b&gt;shard1-b&lt;/b&gt;&lt;div&gt;&lt;b&gt;(seconary)&lt;/b&gt;&lt;/div&gt;" style="shape=cylinder3;whiteSpace=wrap;html=1;boundedLbl=1;backgroundOutline=1;size=15;strokeWidth=2;" parent="1" vertex="1">
          <mxGeometry x="360" y="526" width="60" height="80" as="geometry" />
        </mxCell>
        <mxCell id="0muuILdMk2ypR8TaKjU4-5" value="&lt;b&gt;shard1-a&lt;/b&gt;&lt;div&gt;&lt;b&gt;(secondary)&lt;/b&gt;&lt;/div&gt;" style="shape=cylinder3;whiteSpace=wrap;html=1;boundedLbl=1;backgroundOutline=1;size=15;strokeWidth=2;" parent="1" vertex="1">
          <mxGeometry x="220" y="526" width="60" height="80" as="geometry" />
        </mxCell>
        <mxCell id="0muuILdMk2ypR8TaKjU4-6" value="" style="rounded=1;whiteSpace=wrap;html=1;fillColor=#dae8fc;strokeColor=#6c8ebf;" parent="1" vertex="1">
          <mxGeometry x="640" y="436" width="250" height="180" as="geometry" />
        </mxCell>
        <mxCell id="0muuILdMk2ypR8TaKjU4-7" value="&lt;b&gt;shard2&lt;/b&gt;&lt;div&gt;&lt;b&gt;(primary)&lt;/b&gt;&lt;/div&gt;" style="shape=cylinder3;whiteSpace=wrap;html=1;boundedLbl=1;backgroundOutline=1;size=15;strokeWidth=2;" parent="1" vertex="1">
          <mxGeometry x="735" y="446" width="60" height="80" as="geometry" />
        </mxCell>
        <mxCell id="0muuILdMk2ypR8TaKjU4-8" value="&lt;b&gt;shard2-b&lt;/b&gt;&lt;div&gt;&lt;b&gt;(secondary)&lt;/b&gt;&lt;/div&gt;" style="shape=cylinder3;whiteSpace=wrap;html=1;boundedLbl=1;backgroundOutline=1;size=15;strokeWidth=2;" parent="1" vertex="1">
          <mxGeometry x="810" y="526" width="60" height="80" as="geometry" />
        </mxCell>
        <mxCell id="0muuILdMk2ypR8TaKjU4-9" value="&lt;b&gt;shard2-a&lt;/b&gt;&lt;div&gt;&lt;b&gt;(secondary)&lt;/b&gt;&lt;/div&gt;" style="shape=cylinder3;whiteSpace=wrap;html=1;boundedLbl=1;backgroundOutline=1;size=15;strokeWidth=2;" parent="1" vertex="1">
          <mxGeometry x="670" y="526" width="60" height="80" as="geometry" />
        </mxCell>
        <mxCell id="0muuILdMk2ypR8TaKjU4-12" style="rounded=0;orthogonalLoop=1;jettySize=auto;html=1;exitX=0;exitY=0.5;exitDx=0;exitDy=0;exitPerimeter=0;entryX=0.5;entryY=0;entryDx=0;entryDy=0;entryPerimeter=0;" parent="1" source="0muuILdMk2ypR8TaKjU4-3" target="0muuILdMk2ypR8TaKjU4-5" edge="1">
          <mxGeometry relative="1" as="geometry" />
        </mxCell>
        <mxCell id="0muuILdMk2ypR8TaKjU4-13" style="rounded=0;orthogonalLoop=1;jettySize=auto;html=1;exitX=1;exitY=0.5;exitDx=0;exitDy=0;exitPerimeter=0;entryX=0.33;entryY=0.002;entryDx=0;entryDy=0;entryPerimeter=0;" parent="1" source="0muuILdMk2ypR8TaKjU4-3" target="0muuILdMk2ypR8TaKjU4-4" edge="1">
          <mxGeometry relative="1" as="geometry" />
        </mxCell>
        <mxCell id="0muuILdMk2ypR8TaKjU4-14" style="edgeStyle=orthogonalEdgeStyle;rounded=1;orthogonalLoop=1;jettySize=auto;html=1;entryX=0.776;entryY=1.028;entryDx=0;entryDy=0;entryPerimeter=0;strokeWidth=2;curved=0;" parent="1" edge="1">
          <mxGeometry relative="1" as="geometry">
            <mxPoint x="765" y="430" as="sourcePoint" />
            <mxPoint x="765.0000000000001" y="300.00000000000006" as="targetPoint" />
            <Array as="points">
              <mxPoint x="765" y="410" />
            </Array>
          </mxGeometry>
        </mxCell>
        <mxCell id="0muuILdMk2ypR8TaKjU4-15" style="rounded=0;orthogonalLoop=1;jettySize=auto;html=1;exitX=0;exitY=0.5;exitDx=0;exitDy=0;exitPerimeter=0;entryX=0.5;entryY=0;entryDx=0;entryDy=0;entryPerimeter=0;" parent="1" source="0muuILdMk2ypR8TaKjU4-7" target="0muuILdMk2ypR8TaKjU4-9" edge="1">
          <mxGeometry relative="1" as="geometry" />
        </mxCell>
        <mxCell id="0muuILdMk2ypR8TaKjU4-16" style="rounded=0;orthogonalLoop=1;jettySize=auto;html=1;exitX=1;exitY=0.5;exitDx=0;exitDy=0;exitPerimeter=0;entryX=0.426;entryY=0.008;entryDx=0;entryDy=0;entryPerimeter=0;" parent="1" source="0muuILdMk2ypR8TaKjU4-7" target="0muuILdMk2ypR8TaKjU4-8" edge="1">
          <mxGeometry relative="1" as="geometry" />
        </mxCell>
        <mxCell id="0muuILdMk2ypR8TaKjU4-17" value="" style="endArrow=none;html=1;rounded=0;strokeWidth=2;" parent="1" edge="1">
          <mxGeometry width="50" height="50" relative="1" as="geometry">
            <mxPoint x="535.11" y="400" as="sourcePoint" />
            <mxPoint x="534.9" y="370" as="targetPoint" />
          </mxGeometry>
        </mxCell>
      </root>
    </mxGraphModel>
  </diagram>
</mxfile>
